<?xml version="1.0" encoding="utf-8"?>
<!-- Generator: Adobe Illustrator 17.0.2, SVG Export Plug-In . SVG Version: 6.00 Build 0)  -->
<!DOCTYPE svg PUBLIC "-//W3C//DTD SVG 1.1//EN" "http://www.w3.org/Graphics/SVG/1.1/DTD/svg11.dtd">
<svg version="1.1" id="Layer_1" xmlns:sketch="http://www.bohemiancoding.com/sketch/ns"
	 xmlns="http://www.w3.org/2000/svg" xmlns:xlink="http://www.w3.org/1999/xlink" x="0px" y="0px" width="16px" height="15.9px"
	 viewBox="0.5 0.6 16 15.9" enable-background="new 0.5 0.6 16 15.9" xml:space="preserve">
<path d="M11.508,3.5H4.492C3.392,3.5,2.5,4.4,2.5,5.492v7.016c0,1.1,0.9,1.992,1.992,1.992h7.016c1.1,0,1.992-0.9,1.992-1.992V5.492
	C13.5,4.392,12.6,3.5,11.508,3.5z M12.5,12.502c0,0.552-0.447,0.998-0.998,0.998H4.498c-0.552,0-0.998-0.447-0.998-0.998V5.498
	C3.5,4.946,3.947,4.5,4.498,4.5h7.005c0.551,0,0.997,0.447,0.997,0.998V12.502z"/>
<path id="Rectangle-15" sketch:type="MSShapeGroup" d="M8,6.78l1.686,1.683c0.187,0.187,0.486,0.181,0.673-0.007
	c0.182-0.182,0.191-0.488,0.006-0.672L8.452,5.875C8.43,5.827,8.398,5.783,8.359,5.744C8.26,5.644,8.129,5.596,8,5.6
	C7.871,5.596,7.74,5.644,7.641,5.744C7.602,5.783,7.57,5.827,7.548,5.875l-1.914,1.91C5.45,7.968,5.458,8.275,5.641,8.456
	C5.828,8.644,6.127,8.65,6.314,8.463L8,6.78z"/>
<image overflow="visible" width="16" height="16" xlink:href="../png/buffer.png"  transform="matrix(0.9999 0 0 0.9999 -16.5 0.502)">
</image>
</svg>
