<?xml version="1.0" encoding="utf-8"?>
<!-- Generator: Adobe Illustrator 17.0.2, SVG Export Plug-In . SVG Version: 6.00 Build 0)  -->
<!DOCTYPE svg PUBLIC "-//W3C//DTD SVG 1.1//EN" "http://www.w3.org/Graphics/SVG/1.1/DTD/svg11.dtd">
<svg version="1.1" id="Layer_1" xmlns:sketch="http://www.bohemiancoding.com/sketch/ns"
	 xmlns="http://www.w3.org/2000/svg" xmlns:xlink="http://www.w3.org/1999/xlink" x="0px" y="0px" width="16.008px"
	 height="16.008px" viewBox="-0.508 0.492 16.008 16.008" enable-background="new -0.508 0.492 16.008 16.008" xml:space="preserve"
	>
<title>close</title>
<description>Created with Sketch.</description>
<g id="Page-1" sketch:type="MSPage">
	<g id="close" sketch:type="MSArtboardGroup">
		<path id="Rectangle-15-copy" sketch:type="MSShapeGroup" d="M7.492,7.813L4.305,4.629C4.118,4.442,3.82,4.448,3.632,4.635
			C3.45,4.817,3.442,5.123,3.626,5.307l3.187,3.185l-3.187,3.185c-0.184,0.184-0.176,0.49,0.006,0.672
			c0.188,0.187,0.486,0.193,0.673,0.006L7.492,9.17l3.186,3.184c0.187,0.187,0.486,0.181,0.673-0.006
			c0.182-0.182,0.191-0.488,0.006-0.672L8.171,8.492l3.187-3.185c0.184-0.184,0.176-0.49-0.006-0.672
			c-0.188-0.187-0.486-0.193-0.673-0.006L7.492,7.813z"/>
	</g>
</g>
<image overflow="visible" width="16" height="16" xlink:href="../png/close.png"  transform="matrix(0.9999 0 0 0.9999 -17.5 0.502)">
</image>
</svg>
