<?xml version="1.0" encoding="utf-8"?>
<!-- Generator: Adobe Illustrator 17.0.2, SVG Export Plug-In . SVG Version: 6.00 Build 0)  -->
<!DOCTYPE svg PUBLIC "-//W3C//DTD SVG 1.1//EN" "http://www.w3.org/Graphics/SVG/1.1/DTD/svg11.dtd">
<svg version="1.1" id="Layer_1" xmlns:sketch="http://www.bohemiancoding.com/sketch/ns"
	 xmlns="http://www.w3.org/2000/svg" xmlns:xlink="http://www.w3.org/1999/xlink" x="0px" y="0px" width="16px" height="16px"
	 viewBox="0.5 0.5 16 16" enable-background="new 0.5 0.5 16 16" xml:space="preserve">
<title>folder-open</title>
<description>Created with Sketch.</description>
<g id="Page-1" sketch:type="MSPage">
	<g id="folder-open" sketch:type="MSArtboardGroup">
		<path id="Rectangle-15-copy-2" sketch:type="MSShapeGroup" d="M12.359,6.644c0.182,0.182,0.191,0.488,0.006,0.672l-3.913,3.909
			c-0.023,0.048-0.054,0.093-0.093,0.132C8.26,11.456,8.129,11.504,8,11.5c-0.129,0.005-0.26-0.044-0.359-0.143
			c-0.039-0.039-0.07-0.084-0.093-0.132L3.634,7.315C3.45,7.132,3.458,6.825,3.641,6.644C3.828,6.456,4.127,6.45,4.314,6.637
			L8,10.32l3.686-3.683C11.873,6.45,12.172,6.456,12.359,6.644z"/>
	</g>
</g>
<image overflow="visible" width="16" height="16" xlink:href="../png/folder-open.png"  transform="matrix(0.9999 0 0 0.9999 -16.5 0.502)">
</image>
</svg>
