<?xml version="1.0" encoding="utf-8"?>
<!DOCTYPE svg PUBLIC "-//W3C//DTD SVG 1.1//EN" "http://www.w3.org/Graphics/SVG/1.1/DTD/svg11.dtd">
<svg version="1.1" id="Layer_1" xmlns="http://www.w3.org/2000/svg" xmlns:xlink="http://www.w3.org/1999/xlink" x="0px" y="0px"
	 width="27px" height="26px" viewBox="0 0 27 26" enable-background="new 0 0 27 26" xml:space="preserve">
<g>
	<path fill-rule="evenodd" clip-rule="evenodd" fill="#333333" d="M24.066,6.385c-1.247,1.512-4.67,5.688-7.388,9.007l-3.45-3.492
		c3.122-2.769,6.986-6.192,8.382-7.418c2.485-2.182,4.663-3.481,5.136-2.95C27.042,1.826,26.255,3.731,24.066,6.385z M16.076,16.127
		c-1.053,1.285-1.959,2.391-2.513,3.069l-4.086-3.969c0.662-0.588,1.765-1.566,3.043-2.699L16.076,16.127z M12.953,19.94v-0.012
		C10.581,29,0.042,23.785,0.042,23.785s4.422,0.556,4.422-3.556c0-3.986,4.064-4.346,4.314-4.364l4.184,4.065
		C12.961,19.93,12.953,19.94,12.953,19.94z"/>
</g>
</svg>
