<?xml version="1.0" encoding="utf-8"?>
<!-- Generator: Adobe Illustrator 17.0.2, SVG Export Plug-In . SVG Version: 6.00 Build 0)  -->
<!DOCTYPE svg PUBLIC "-//W3C//DTD SVG 1.1//EN" "http://www.w3.org/Graphics/SVG/1.1/DTD/svg11.dtd">
<svg version="1.1" id="Layer_1" xmlns:sketch="http://www.bohemiancoding.com/sketch/ns"
	 xmlns="http://www.w3.org/2000/svg" xmlns:xlink="http://www.w3.org/1999/xlink" x="0px" y="0px" width="16px" height="16px"
	 viewBox="-0.5 -0.5 16 16" enable-background="new -0.5 -0.5 16 16" xml:space="preserve">
<title>regex</title>
<description>Created with Sketch.</description>
<g id="Page-1" sketch:type="MSPage">
	<g id="regex" sketch:type="MSArtboardGroup">
		<path id="Rectangle-2" sketch:type="MSShapeGroup" d="M7.5,6.793V3.001C7.5,2.724,7.268,2.5,7,2.5c-0.276,0-0.5,0.23-0.5,0.501
			v3.786l0,0L3.865,4.149c-0.219-0.219-0.56-0.233-0.75-0.043c-0.195,0.195-0.176,0.531,0.043,0.75L5.799,7.5H2.061
			C1.751,7.5,1.5,7.732,1.5,8c0,0.276,0.25,0.5,0.561,0.5h3.732l-2.639,2.639c-0.219,0.219-0.232,0.56-0.043,0.75
			c0.195,0.195,0.531,0.176,0.75-0.043L6.5,9.207v3.792C6.5,13.276,6.732,13.5,7,13.5c0.276,0,0.5-0.23,0.5-0.501V9.203l2.64,2.643
			c0.219,0.219,0.56,0.233,0.75,0.043c0.195-0.195,0.176-0.531-0.043-0.75L8.211,8.5h3.728c0.31,0,0.561-0.232,0.561-0.5
			c0-0.276-0.25-0.5-0.561-0.5H8.207l2.639-2.639c0.219-0.219,0.232-0.56,0.043-0.75c-0.195-0.195-0.531-0.176-0.75,0.043L7.5,6.793
			z"/>
	</g>
</g>
<image overflow="visible" width="16" height="16" xlink:href="../png/regex.png"  transform="matrix(0.9999 0 0 0.9999 -17.5 -0.498)">
</image>
</svg>
