<?xml version="1.0" encoding="utf-8"?>
<!-- Generator: Adobe Illustrator 17.0.2, SVG Export Plug-In . SVG Version: 6.00 Build 0)  -->
<!DOCTYPE svg PUBLIC "-//W3C//DTD SVG 1.1//EN" "http://www.w3.org/Graphics/SVG/1.1/DTD/svg11.dtd">
<svg version="1.1" id="Layer_1" xmlns:sketch="http://www.bohemiancoding.com/sketch/ns"
	 xmlns="http://www.w3.org/2000/svg" xmlns:xlink="http://www.w3.org/1999/xlink" x="0px" y="0px" width="16px" height="16px"
	 viewBox="1.489 -0.511 16 16" enable-background="new 1.489 -0.511 16 16" xml:space="preserve">
<path d="M14.449,12.736L9.632,2.823C9.523,2.597,9.258,2.47,9,2.506C8.741,2.47,8.476,2.597,8.367,2.823L3.55,12.737
	c-0.133,0.274,0.01,0.599,0.3,0.718c0.299,0.122,0.652-0.007,0.783-0.276L5.447,11.5h7.105l0.815,1.678
	c0.131,0.269,0.484,0.398,0.783,0.276C14.44,13.336,14.583,13.011,14.449,12.736z M5.933,10.5l3.066-6.311l3.067,6.311H5.933z"/>
<image overflow="visible" width="16" height="16" xlink:href="../png/casesens.png"  transform="matrix(0.9999 0 0 0.9999 -15.5 -0.498)">
</image>
</svg>
