<?xml version="1.0" encoding="utf-8"?>
<!-- Generator: Adobe Illustrator 17.0.2, SVG Export Plug-In . SVG Version: 6.00 Build 0)  -->
<!DOCTYPE svg PUBLIC "-//W3C//DTD SVG 1.1//EN" "http://www.w3.org/Graphics/SVG/1.1/DTD/svg11.dtd">
<svg version="1.1" id="Layer_1" xmlns:sketch="http://www.bohemiancoding.com/sketch/ns"
	 xmlns="http://www.w3.org/2000/svg" xmlns:xlink="http://www.w3.org/1999/xlink" x="0px" y="0px" width="16px" height="16px"
	 viewBox="0.5 0.5 16 16" enable-background="new 0.5 0.5 16 16" xml:space="preserve">
<title>folder-closed</title>
<description>Created with Sketch.</description>
<g id="Page-1" sketch:type="MSPage">
	<g id="folder-closed" sketch:type="MSArtboardGroup">
		<path id="Rectangle-15-copy" sketch:type="MSShapeGroup" d="M6.637,5.314C6.45,5.127,6.456,4.828,6.644,4.641
			C6.825,4.458,7.132,4.45,7.315,4.634l3.909,3.913c0.048,0.023,0.093,0.054,0.132,0.093C11.456,8.74,11.504,8.871,11.5,9
			c0.005,0.129-0.044,0.26-0.143,0.359c-0.039,0.039-0.084,0.07-0.132,0.093l-3.909,3.913c-0.184,0.184-0.49,0.176-0.672-0.006
			c-0.187-0.188-0.193-0.486-0.006-0.673L10.32,9L6.637,5.314z"/>
	</g>
</g>
<image overflow="visible" width="16" height="16" xlink:href="../png/folder-closed.png"  transform="matrix(0.9999 0 0 0.9999 -16.5 0.502)">
</image>
</svg>
