<?xml version="1.0" encoding="utf-8"?>
<!-- Generator: Adobe Illustrator 17.0.2, SVG Export Plug-In . SVG Version: 6.00 Build 0)  -->
<!DOCTYPE svg PUBLIC "-//W3C//DTD SVG 1.1//EN" "http://www.w3.org/Graphics/SVG/1.1/DTD/svg11.dtd">
<svg version="1.1" id="Layer_1" xmlns:sketch="http://www.bohemiancoding.com/sketch/ns"
	 xmlns="http://www.w3.org/2000/svg" xmlns:xlink="http://www.w3.org/1999/xlink" x="0px" y="0px" width="16.038px"
	 height="16.038px" viewBox="0.5 0.5 16.038 16.038" enable-background="new 0.5 0.5 16.038 16.038" xml:space="preserve">
<path d="M11.508,8.5H11.5c0-0.096,0-0.433,0-1.5c0-1.933-1.567-3.5-3.5-3.5S4.5,5.067,4.5,7v1.5H4.492
	c-1.1,0-1.992,0.898-1.992,1.998v2.004c0,1.104,0.9,1.998,1.992,1.998h7.016c1.1,0,1.992-0.898,1.992-1.998v-2.004
	C13.5,9.394,12.6,8.5,11.508,8.5z M5.5,7c0-1.381,1.119-2.5,2.5-2.5s2.5,1.119,2.5,2.5v1.5h-5V7z M12.5,12.491
	c0,0.566-0.447,1.009-0.998,1.009H4.498c-0.552,0-0.998-0.452-0.998-1.009V10.51c0-0.567,0.447-1.01,0.998-1.01h7.005
	c0.551,0,0.997,0.452,0.997,1.009V12.491z"/>
<image overflow="visible" width="16" height="16" xlink:href="../png/lock.png"  transform="matrix(0.9999 0 0 0.9999 -16.5 0.502)">
</image>
</svg>
