<?xml version="1.0" encoding="utf-8"?>
<!-- Generator: Adobe Illustrator 17.0.2, SVG Export Plug-In . SVG Version: 6.00 Build 0)  -->
<!DOCTYPE svg PUBLIC "-//W3C//DTD SVG 1.1//EN" "http://www.w3.org/Graphics/SVG/1.1/DTD/svg11.dtd">
<svg version="1.1" id="Layer_1" xmlns:sketch="http://www.bohemiancoding.com/sketch/ns"
	 xmlns="http://www.w3.org/2000/svg" xmlns:xlink="http://www.w3.org/1999/xlink" x="0px" y="0px" width="15.971px"
	 height="16.029px" viewBox="0.5 0.5 15.971 16.029" enable-background="new 0.5 0.5 15.971 16.029" xml:space="preserve">
<title>reverse</title>
<description>Created with Sketch.</description>
<g id="Page-1" sketch:type="MSPage">
	<g id="reverse" sketch:type="MSArtboardGroup">
		<path id="Rectangle-15-copy" sketch:type="MSShapeGroup" d="M13.363,5.314c0.187-0.187,0.181-0.486-0.006-0.673
			c-0.182-0.182-0.488-0.191-0.672-0.006L8.775,8.548C8.727,8.57,8.683,8.602,8.644,8.641C8.544,8.74,8.496,8.871,8.5,9
			C8.496,9.129,8.544,9.26,8.644,9.359c0.039,0.039,0.084,0.07,0.132,0.093l3.909,3.913c0.184,0.184,0.49,0.176,0.672-0.006
			c0.187-0.188,0.193-0.486,0.006-0.673L9.68,9L13.363,5.314z"/>
		<path id="Rectangle-15" sketch:type="MSShapeGroup" d="M7.363,5.314C7.55,5.127,7.544,4.828,7.356,4.641
			C7.175,4.458,6.868,4.45,6.685,4.634L2.775,8.548C2.727,8.57,2.683,8.602,2.644,8.641C2.544,8.74,2.496,8.871,2.5,9
			C2.496,9.129,2.544,9.26,2.644,9.359c0.039,0.039,0.084,0.07,0.132,0.093l3.909,3.913c0.184,0.184,0.49,0.176,0.672-0.006
			c0.187-0.188,0.193-0.486,0.006-0.673L3.68,9L7.363,5.314z"/>
	</g>
</g>
<image overflow="visible" width="16" height="16" xlink:href="../png/reverse.png"  transform="matrix(0.9999 0 0 0.9999 -16.5 0.502)">
</image>
</svg>
