<?xml version="1.0" encoding="utf-8"?>
<!-- Generator: Adobe Illustrator 17.0.2, SVG Export Plug-In . SVG Version: 6.00 Build 0)  -->
<!DOCTYPE svg PUBLIC "-//W3C//DTD SVG 1.1//EN" "http://www.w3.org/Graphics/SVG/1.1/DTD/svg11.dtd">
<svg version="1.1" id="Layer_1" xmlns:sketch="http://www.bohemiancoding.com/sketch/ns"
	 xmlns="http://www.w3.org/2000/svg" xmlns:xlink="http://www.w3.org/1999/xlink" x="0px" y="0px" width="16px" height="16px"
	 viewBox="-0.5 -0.5 16 16" enable-background="new -0.5 -0.5 16 16" xml:space="preserve">
<title>selection</title>
<description>Created with Sketch.</description>
<g id="Page-1" sketch:type="MSPage">
	<g id="selection" sketch:type="MSArtboardGroup">
		<path id="Rectangle-16-copy-2" sketch:type="MSShapeGroup" d="M8.5,3.5h4c0.552,0,1,0.224,1,0.5l0,0c0,0.276-0.448,0.5-1,0.5h-4
			c-0.552,0-1-0.224-1-0.5l0,0C7.5,3.724,7.948,3.5,8.5,3.5z"/>
		<path id="Rectangle-16-copy-2_1_" sketch:type="MSShapeGroup" d="M3.5,9.5h9c0.552,0,1,0.224,1,0.5l0,0c0,0.276-0.448,0.5-1,0.5
			h-9c-0.552,0-1-0.224-1-0.5l0,0C2.5,9.724,2.948,9.5,3.5,9.5z"/>
		<path id="Rectangle-16-copy-3" sketch:type="MSShapeGroup" d="M3.5,6.5h9c0.552,0,1,0.224,1,0.5l0,0c0,0.276-0.448,0.5-1,0.5h-9
			c-0.552,0-1-0.224-1-0.5l0,0C2.5,6.724,2.948,6.5,3.5,6.5z"/>
		<path id="Rectangle-16-copy-5" sketch:type="MSShapeGroup" d="M3.5,12.5h4c0.552,0,1,0.224,1,0.5l0,0c0,0.276-0.448,0.5-1,0.5h-4
			c-0.552,0-1-0.224-1-0.5l0,0C2.5,12.724,2.948,12.5,3.5,12.5z"/>
	</g>
</g>
<image overflow="visible" width="16" height="16" xlink:href="../png/selection.png"  transform="matrix(0.9999 0 0 0.9999 -18.498 -0.498)">
</image>
</svg>
