<?xml version="1.0" encoding="utf-8"?>
<!-- Generator: Adobe Illustrator 17.0.2, SVG Export Plug-In . SVG Version: 6.00 Build 0)  -->
<!DOCTYPE svg PUBLIC "-//W3C//DTD SVG 1.1//EN" "http://www.w3.org/Graphics/SVG/1.1/DTD/svg11.dtd">
<svg version="1.1" id="Layer_1" xmlns:sketch="http://www.bohemiancoding.com/sketch/ns"
	 xmlns="http://www.w3.org/2000/svg" xmlns:xlink="http://www.w3.org/1999/xlink" x="0px" y="0px" width="16px" height="16px"
	 viewBox="0.5 0.5 16 16" enable-background="new 0.5 0.5 16 16" xml:space="preserve">
<title>wholeword</title>
<description>Created with Sketch.</description>
<g id="Page-1" sketch:type="MSPage">
	<g id="wholeword" sketch:type="MSArtboardGroup">
		<path id="Rectangle-4-copy-2" sketch:type="MSShapeGroup" d="M11,3.5L11,3.5c0.276,0,0.5,0.448,0.5,1v2c0,0.552-0.224,1-0.5,1l0,0
			c-0.276,0-0.5-0.448-0.5-1v-2C10.5,3.948,10.724,3.5,11,3.5z"/>
		<path id="Rectangle-4-copy-3" sketch:type="MSShapeGroup" d="M13,3.5L13,3.5c0.276,0,0.5,0.448,0.5,1v2c0,0.552-0.224,1-0.5,1l0,0
			c-0.276,0-0.5-0.448-0.5-1v-2C12.5,3.948,12.724,3.5,13,3.5z"/>
		<path id="Rectangle-4-copy" sketch:type="MSShapeGroup" d="M3,10.5L3,10.5c0.276,0,0.5,0.448,0.5,1v2c0,0.552-0.224,1-0.5,1l0,0
			c-0.276,0-0.5-0.448-0.5-1v-2C2.5,10.948,2.724,10.5,3,10.5z"/>
		<path id="Rectangle-4-copy-2_1_" sketch:type="MSShapeGroup" d="M5,10.5L5,10.5c0.276,0,0.5,0.448,0.5,1v2c0,0.552-0.224,1-0.5,1
			l0,0c-0.276,0-0.5-0.448-0.5-1v-2C4.5,10.948,4.724,10.5,5,10.5z"/>
	</g>
</g>
</svg>
