<?xml version="1.0" encoding="utf-8"?>
<!-- Generator: Adobe Illustrator 17.0.2, SVG Export Plug-In . SVG Version: 6.00 Build 0)  -->
<!DOCTYPE svg PUBLIC "-//W3C//DTD SVG 1.1//EN" "http://www.w3.org/Graphics/SVG/1.1/DTD/svg11.dtd">
<svg version="1.1" id="Layer_1" xmlns:sketch="http://www.bohemiancoding.com/sketch/ns"
	 xmlns="http://www.w3.org/2000/svg" xmlns:xlink="http://www.w3.org/1999/xlink" x="0px" y="0px" width="16px" height="16px"
	 viewBox="-0.5 -0.5 16 16" enable-background="new -0.5 -0.5 16 16" xml:space="preserve">
<path d="M10.508,2.5H3.492C2.392,2.5,1.5,3.4,1.5,4.492v2.329L0.314,5.637C0.127,5.45-0.172,5.456-0.359,5.644
	C-0.542,5.825-0.55,6.132-0.366,6.315L1.563,8.24C1.585,8.281,1.606,8.322,1.64,8.356C1.74,8.456,1.871,8.5,2,8.496
	c0.129,0.004,0.26-0.04,0.359-0.14C2.393,8.323,2.415,8.281,2.437,8.24l1.929-1.925C4.55,6.131,4.542,5.825,4.36,5.643
	C4.172,5.456,3.873,5.45,3.686,5.637L2.5,6.821V4.498C2.5,3.946,2.947,3.5,3.498,3.5h7.005c0.551,0,0.997,0.447,0.997,0.998v7.005
	c0,0.551-0.447,0.997-0.998,0.997H3.498c-0.552,0-0.998-0.447-0.998-0.998V11c0-0.276-0.224-0.5-0.5-0.5S1.5,10.724,1.5,11v0.508
	c0,1.1,0.9,1.992,1.992,1.992h7.016c1.1,0,1.992-0.9,1.992-1.992V4.492C12.5,3.392,11.6,2.5,10.508,2.5z"/>
<image overflow="visible" width="16" height="16" xlink:href="../png/wrap.png"  transform="matrix(0.9999 0 0 0.9999 -17.5 -0.498)">
</image>
</svg>
